<svg width="25" height="24" viewBox="0 0 25 24" fill="none" xmlns="http://www.w3.org/2000/svg">
<path d="M24.5002 12.2665C24.5002 11.2799 24.4185 10.5599 24.2417 9.81323H12.7451V14.2665H19.4933C19.3573 15.3732 18.6226 17.0398 16.99 18.1598L16.9671 18.3088L20.6021 21.0685L20.8539 21.0931C23.1668 18.9998 24.5002 15.9198 24.5002 12.2665Z" fill="#4285F4"/>
<path d="M12.7454 24C16.0515 24 18.827 22.9333 20.8543 21.0934L16.9903 18.16C15.9563 18.8667 14.5685 19.36 12.7454 19.36C9.50737 19.36 6.75909 17.2667 5.77941 14.3734L5.63581 14.3854L1.85607 17.252L1.80664 17.3867C3.82022 21.3066 7.95629 24 12.7454 24Z" fill="#34A853"/>
<path d="M5.77884 14.3732C5.52034 13.6265 5.37074 12.8265 5.37074 11.9998C5.37074 11.1731 5.52034 10.3732 5.76524 9.62653L5.75839 9.46751L1.9313 6.55481L1.80609 6.61318C0.976194 8.23985 0.5 10.0665 0.5 11.9998C0.5 13.9332 0.976194 15.7598 1.80609 17.3864L5.77884 14.3732Z" fill="#FBBC05"/>
<path d="M12.7454 4.63993C15.0447 4.63993 16.5957 5.61325 17.4801 6.42663L20.9358 3.11997C18.8134 1.18666 16.0515 0 12.7454 0C7.95627 0 3.82022 2.69329 1.80664 6.61322L5.76579 9.62657C6.75908 6.73327 9.50734 4.63993 12.7454 4.63993Z" fill="#EB4335"/>
</svg>
