<svg width="95" height="16" viewBox="0 0 95 16" fill="none" xmlns="http://www.w3.org/2000/svg">
<path d="M75.0144 5.46363C74.9162 5.17595 74.6567 4.97275 74.3538 4.94916L70.015 4.6044L68.1375 0.448263C68.015 0.175043 67.7433 0 67.4442 0C67.1451 0 66.8734 0.175043 66.7508 0.447502L64.8733 4.6044L60.5345 4.94916C60.237 4.97275 59.9805 5.16834 59.8793 5.44917C59.778 5.73 59.8496 6.04432 60.0634 6.25285L63.2698 9.37851L62.1358 14.2889C62.0658 14.5925 62.1883 14.9084 62.4448 15.0857C62.5757 15.1755 62.7264 15.2212 62.8778 15.2212C63.0247 15.2212 63.1724 15.1785 63.3002 15.0933L67.4442 12.3307L71.5881 15.0933C71.853 15.2699 72.2008 15.263 72.4595 15.075C72.7168 14.887 72.8302 14.5575 72.7427 14.2516L71.3507 9.3808L74.8028 6.27416C75.0289 6.0702 75.1118 5.75207 75.0144 5.46363Z" fill="#FF7A00"/>
<path d="M55.0701 5.46363C54.9719 5.17595 54.7124 4.97275 54.4095 4.94916L50.0707 4.6044L48.1932 0.448263C48.0706 0.175043 47.7989 0 47.4998 0C47.2007 0 46.929 0.175043 46.8065 0.447502L44.929 4.6044L40.5902 4.94916C40.2926 4.97275 40.0361 5.16834 39.9349 5.44917C39.8337 5.73 39.9052 6.04432 40.1191 6.25285L43.3254 9.37851L42.1915 14.2889C42.1214 14.5925 42.244 14.9084 42.5004 15.0857C42.6314 15.1755 42.782 15.2212 42.9335 15.2212C43.0804 15.2212 43.228 15.1785 43.3559 15.0933L47.4998 12.3307L51.6438 15.0933C51.9086 15.2699 52.2564 15.263 52.5152 15.075C52.7724 14.887 52.8858 14.5575 52.7983 14.2516L51.4063 9.3808L54.8585 6.27416C55.0845 6.0702 55.1675 5.75207 55.0701 5.46363Z" fill="#FF7A00"/>
<path d="M35.1248 5.46363C35.0266 5.17595 34.7671 4.97275 34.4642 4.94916L30.1254 4.6044L28.2478 0.448263C28.1253 0.175043 27.8536 0 27.5545 0C27.2554 0 26.9837 0.175043 26.8612 0.447502L24.9837 4.6044L20.6449 4.94916C20.3473 4.97275 20.0908 5.16834 19.9896 5.44917C19.8884 5.73 19.9599 6.04432 20.1738 6.25285L23.3801 9.37851L22.2461 14.2889C22.1761 14.5925 22.2987 14.9084 22.5551 15.0857C22.686 15.1755 22.8367 15.2212 22.9882 15.2212C23.1351 15.2212 23.2827 15.1785 23.4106 15.0933L27.5545 12.3307L31.6985 15.0933C31.9633 15.2699 32.3111 15.263 32.5699 15.075C32.8271 14.887 32.9405 14.5575 32.853 14.2516L31.461 9.3808L34.9132 6.27416C35.1392 6.0702 35.2222 5.75207 35.1248 5.46363Z" fill="#FF7A00"/>
<path d="M15.1804 5.46363C15.0823 5.17595 14.8227 4.97275 14.5198 4.94916L10.181 4.6044L8.30351 0.448263C8.18098 0.175043 7.90928 0 7.61019 0C7.31109 0 7.0394 0.175043 6.91686 0.447502L5.03934 4.6044L0.700546 4.94916C0.402973 4.97275 0.146496 5.16834 0.0452757 5.44917C-0.0559449 5.73 0.0155946 6.04432 0.229452 6.25285L3.43579 9.37851L2.30181 14.2889C2.23179 14.5925 2.35432 14.9084 2.6108 15.0857C2.7417 15.1755 2.89239 15.2212 3.04384 15.2212C3.19073 15.2212 3.33837 15.1785 3.46623 15.0933L7.61019 12.3307L11.7541 15.0933C12.019 15.2699 12.3668 15.263 12.6256 15.075C12.8828 14.887 12.9962 14.5575 12.9087 14.2516L11.5167 9.3808L14.9689 6.27416C15.1949 6.0702 15.2778 5.75207 15.1804 5.46363Z" fill="#FF7A00"/>
<path d="M82.0813 14.2887C82.0113 14.5923 82.133 14.9082 82.3903 15.0855C82.5212 15.1753 82.6718 15.221 82.8233 15.221C82.9702 15.221 83.1178 15.1783 83.2457 15.0931L87.3896 12.3305L91.5335 15.0931C91.7983 15.2697 92.1454 15.2628 92.4049 15.0748C92.6621 14.8869 92.7755 14.5573 92.688 14.2514L91.296 9.38068L94.7482 6.27408C94.9742 6.07088 95.0571 5.752 94.9597 5.46433C94.8616 5.17665 94.602 4.97345 94.2991 4.94986L89.9604 4.60434L88.0829 0.448257C87.9604 0.175041 87.6887 0 87.3896 0C87.0905 0 86.8188 0.175041 86.6963 0.447496L84.8188 4.60434L80.48 4.9491C80.1817 4.97269 79.9252 5.16828 79.8248 5.4491C79.7228 5.72993 79.7958 6.04424 80.0089 6.25277L83.216 9.3784L82.0813 14.2887ZM87.3896 2.60963L88.9436 6.05033L89.3911 6.0861L92.4148 6.32583L89.9254 8.56636C89.9246 8.56712 89.9246 8.56712 89.9246 8.56788L89.5723 8.88447L89.7024 9.33882V9.3411L90.656 12.6783L87.3896 10.5009V2.60963Z" fill="#FF7A00"/>
</svg>
