<svg width="26" height="22" viewBox="0 0 26 22" fill="none" xmlns="http://www.w3.org/2000/svg">
<path d="M22.9302 5.90803C22.946 6.1301 22.946 6.35222 22.946 6.57429C22.946 13.3477 17.7906 21.1523 8.36802 21.1523C5.46509 21.1523 2.76841 20.3115 0.5 18.8522C0.912451 18.8998 1.30898 18.9156 1.7373 18.9156C4.13257 18.9156 6.33755 18.1067 8.09834 16.7266C5.8458 16.679 3.95811 15.2037 3.30771 13.1733C3.625 13.2208 3.94224 13.2526 4.27539 13.2526C4.7354 13.2526 5.19546 13.1891 5.62373 13.0781C3.27603 12.6022 1.51519 10.54 1.51519 8.04954V7.98611C2.19727 8.36682 2.99048 8.60476 3.83115 8.63645C2.45107 7.71638 1.54692 6.14597 1.54692 4.36931C1.54692 3.41755 1.80068 2.54509 2.24487 1.78367C4.76709 4.8928 8.55835 6.92322 12.8096 7.14534C12.7303 6.76462 12.6827 6.36809 12.6827 5.97151C12.6827 3.14788 14.9669 0.847778 17.8064 0.847778C19.2816 0.847778 20.6141 1.46643 21.55 2.4658C22.708 2.24373 23.8184 1.81541 24.802 1.22849C24.4212 2.41824 23.6122 3.4176 22.5494 4.05208C23.5805 3.94109 24.5799 3.65549 25.4999 3.25896C24.802 4.27415 23.9295 5.1783 22.9302 5.90803Z" fill="#6BAAE8"/>
</svg>
